<?xml version="1.0" encoding="UTF-8" standalone="no"?>
<!-- Created with Inkscape (http://www.inkscape.org/) -->

<svg
   width="1415.9572"
   height="31.999023"
   viewBox="0 0 1415.9572 31.999023"
   version="1.1"
   id="svg1"
   xmlns="http://www.w3.org/2000/svg"
   xmlns:svg="http://www.w3.org/2000/svg">
  <defs
     id="defs1" />
  <path
     style="font-weight:bold;font-size:35.9989px;font-family:'Minecraft Logotype';-inkscape-font-specification:'Minecraft Logotype Bold';stroke-width:2.99991"
     d="m 1409.9572,7.9997559 h 1.9999 V 5.999817 h 3.9999 v 3.9998779 h -1.9999 v 1.9999391 h -3.9999 V 9.9996949 h -2 v 1.9999391 h -3.9998 V 7.9997559 h 1.9999 V 5.999817 h 3.9999 z"
     id="path103" />
  <path
     style="font-weight:bold;font-size:35.9989px;font-family:'Minecraft Logotype';-inkscape-font-specification:'Minecraft Logotype Bold';stroke-width:2.99991"
     d="m 1395.9576,17.999451 v -3.999878 h -2 V 9.9996949 h -3.9999 V 5.999817 h 9.9997 v 7.999756 h 2 v 3.999878 h -2 v 7.999756 h -9.9997 v -3.999878 h 3.9999 v -3.999878 z"
     id="path102" />
  <path
     style="font-weight:bold;font-size:35.9989px;font-family:'Minecraft Logotype';-inkscape-font-specification:'Minecraft Logotype Bold';stroke-width:2.99991"
     d="m 1381.958,5.999817 h 5.9998 v 25.999207 h -5.9998 z"
     id="path101" />
  <path
     style="font-weight:bold;font-size:35.9989px;font-family:'Minecraft Logotype';-inkscape-font-specification:'Minecraft Logotype Bold';stroke-width:2.99991"
     d="m 1367.9585,13.999573 h 1.9999 V 5.999817 h 9.9997 v 3.9998779 h -3.9999 v 3.9998781 h -1.9999 v 3.999878 h 1.9999 v 3.999878 h 3.9999 v 3.999878 h -9.9997 v -7.999756 h -1.9999 z"
     id="path100" />
  <path
     style="font-weight:bold;font-size:35.9989px;font-family:'Minecraft Logotype';-inkscape-font-specification:'Minecraft Logotype Bold';stroke-width:2.99991"
     d="m 1353.9589,17.999451 h 5.9998 v -1.999939 h -7.9997 v -3.999878 h 13.9995 v 5.999817 h -1.9999 v 1.999939 h -5.9998 v 1.999939 h 7.9997 v 3.999878 H 1351.959 V 19.99939 h 1.9999 z"
     id="path99" />
  <path
     style="font-weight:bold;font-size:35.9989px;font-family:'Minecraft Logotype';-inkscape-font-specification:'Minecraft Logotype Bold';stroke-width:2.99991"
     d="m 1335.9594,27.999146 h 7.9998 v -1.999939 h -7.9998 V 11.999634 h 5.9999 v 9.999695 h 1.9999 v -9.999695 h 5.9998 v 19.99939 h -13.9996 z"
     id="path98" />
  <path
     style="font-weight:bold;font-size:35.9989px;font-family:'Minecraft Logotype';-inkscape-font-specification:'Minecraft Logotype Bold';stroke-width:2.99991"
     d="m 1329.9596,19.99939 h 3.9999 v 5.999817 h -5.9998 v -3.999878 h -2 v 3.999878 h -5.9998 V 19.99939 h 3.9999 v -1.999939 h -3.9999 v -5.999817 h 5.9998 v 3.999878 h 2 v -3.999878 h 5.9998 v 5.999817 h -3.9999 z"
     id="path97" />
  <path
     style="font-weight:bold;font-size:35.9989px;font-family:'Minecraft Logotype';-inkscape-font-specification:'Minecraft Logotype Bold';stroke-width:2.99991"
     d="m 1311.9601,11.999634 h 5.9998 v 11.999634 h -1.9999 v 1.999939 h -5.9998 v -3.999878 h -3.9999 v 3.999878 h -5.9998 v -1.999939 h -2 V 11.999634 h 5.9999 v 7.999756 h 1.9999 v -3.999878 h 3.9999 v 3.999878 h 1.9999 z"
     id="path96" />
  <path
     style="font-weight:bold;font-size:35.9989px;font-family:'Minecraft Logotype';-inkscape-font-specification:'Minecraft Logotype Bold';stroke-width:2.99991"
     d="m 1291.9607,23.999268 v 1.999939 h -5.9998 v -1.999939 h -1.9999 V 19.99939 h -2 v -7.999756 h 5.9998 v 7.999756 h 2 v -7.999756 h 5.9998 v 7.999756 h -1.9999 v 3.999878 z"
     id="path95" />
  <path
     style="font-weight:bold;font-size:35.9989px;font-family:'Minecraft Logotype';-inkscape-font-specification:'Minecraft Logotype Bold';stroke-width:2.99991"
     d="m 1279.9611,25.999207 h -3.9999 v -1.999939 h -1.9999 v 1.999939 h -7.9998 V 11.999634 h 5.9998 v 9.999695 h 2 v -9.999695 h 5.9998 z"
     id="path94" />
  <path
     style="font-weight:bold;font-size:35.9989px;font-family:'Minecraft Logotype';-inkscape-font-specification:'Minecraft Logotype Bold';stroke-width:2.99991"
     d="m 1259.9617,21.999329 h 3.9999 v 3.999878 h -9.9997 v -9.999695 h -3.9999 v -3.999878 h 3.9999 V 7.9997559 h 5.9998 v 3.9998781 h 3.9999 v 3.999878 h -3.9999 z"
     id="path93" />
  <path
     style="font-weight:bold;font-size:35.9989px;font-family:'Minecraft Logotype';-inkscape-font-specification:'Minecraft Logotype Bold';stroke-width:2.99991"
     d="m 1239.9623,17.999451 h 7.9998 v 7.999756 h -13.9996 v -3.999878 h 7.9997 V 19.99939 h -7.9997 v -7.999756 h 13.9996 v 3.999878 h -7.9998 z"
     id="path92" />
  <path
     style="font-weight:bold;font-size:35.9989px;font-family:'Minecraft Logotype';-inkscape-font-specification:'Minecraft Logotype Bold';stroke-width:2.99991"
     d="m 1231.9625,11.999634 v 3.999878 h -5.9998 v 9.999695 h -5.9998 V 11.999634 Z"
     id="path91" />
  <path
     style="font-weight:bold;font-size:35.9989px;font-family:'Minecraft Logotype';-inkscape-font-specification:'Minecraft Logotype Bold';stroke-width:2.99991"
     d="m 1211.9631,25.999207 h -7.9998 V 11.999634 h 13.9996 v 19.99939 h -5.9998 z m -1.9999,-3.999878 h 1.9999 v -5.999817 h -1.9999 z"
     id="path90" />
  <path
     style="font-weight:bold;font-size:35.9989px;font-family:'Minecraft Logotype';-inkscape-font-specification:'Minecraft Logotype Bold';stroke-width:2.99991"
     d="m 1193.9637,25.999207 v 5.999817 h -5.9999 v -19.99939 h 13.9996 v 13.999573 z m 0,-3.999878 h 1.9999 v -5.999817 h -1.9999 z"
     id="path89" />
  <path
     style="font-weight:bold;font-size:35.9989px;font-family:'Minecraft Logotype';-inkscape-font-specification:'Minecraft Logotype Bold';stroke-width:2.99991"
     d="M 1171.9643,25.999207 V 11.999634 h 13.9996 v 13.999573 z m 5.9998,-3.999878 h 2 v -5.999817 h -2 z"
     id="path88" />
  <path
     style="font-weight:bold;font-size:35.9989px;font-family:'Minecraft Logotype';-inkscape-font-specification:'Minecraft Logotype Bold';stroke-width:2.99991"
     d="m 1169.9644,11.999634 v 13.999573 h -5.9998 v -9.999695 h -2 v 9.999695 h -5.9998 V 11.999634 Z"
     id="path87" />
  <path
     style="font-weight:bold;font-size:35.9989px;font-family:'Minecraft Logotype';-inkscape-font-specification:'Minecraft Logotype Bold';stroke-width:2.99991"
     d="m 1153.9649,11.999634 v 13.999573 h -5.9998 v -9.999695 h -1.9999 v 5.999817 h -3.9999 v -5.999817 h -1.9999 v 9.999695 h -5.9999 V 11.999634 h 7.9998 v 1.999939 h 3.9999 v -1.999939 z"
     id="path86" />
  <path
     style="font-weight:bold;font-size:35.9989px;font-family:'Minecraft Logotype';-inkscape-font-specification:'Minecraft Logotype Bold';stroke-width:2.99991"
     d="m 1125.9658,5.999817 h 5.9998 v 19.99939 h -5.9998 z"
     id="path85" />
  <path
     style="font-weight:bold;font-size:35.9989px;font-family:'Minecraft Logotype';-inkscape-font-specification:'Minecraft Logotype Bold';stroke-width:2.99991"
     d="m 1109.9663,5.999817 h 5.9998 v 9.999695 h 1.9999 v -3.999878 h 5.9999 v 5.999817 h -3.9999 v 1.999939 h 3.9999 v 5.999817 h -5.9999 v -3.999878 h -1.9999 v 3.999878 h -5.9998 z"
     id="path84" />
  <path
     style="font-weight:bold;font-size:35.9989px;font-family:'Minecraft Logotype';-inkscape-font-specification:'Minecraft Logotype Bold';stroke-width:2.99991"
     d="m 1101.9665,5.999817 h 5.9998 v 3.9998779 h -5.9998 z"
     id="path83" />
  <path
     style="font-weight:bold;font-size:35.9989px;font-family:'Minecraft Logotype';-inkscape-font-specification:'Minecraft Logotype Bold';stroke-width:2.99991"
     d="m 1093.9668,23.999268 h 5.9998 v 3.999878 h 1.9999 V 11.999634 h 5.9998 v 19.99939 h -13.9995 z"
     id="path82" />
  <path
     style="font-weight:bold;font-size:35.9989px;font-family:'Minecraft Logotype';-inkscape-font-specification:'Minecraft Logotype Bold';stroke-width:2.99991"
     d="m 1085.967,5.999817 h 5.9998 v 3.9998779 h -5.9998 z"
     id="path81" />
  <path
     style="font-weight:bold;font-size:35.9989px;font-family:'Minecraft Logotype';-inkscape-font-specification:'Minecraft Logotype Bold';stroke-width:2.99991"
     d="m 1085.967,11.999634 h 5.9998 v 13.999573 h -5.9998 z"
     id="path80" />
  <path
     style="font-weight:bold;font-size:35.9989px;font-family:'Minecraft Logotype';-inkscape-font-specification:'Minecraft Logotype Bold';stroke-width:2.99991"
     d="m 1083.9671,11.999634 v 13.999573 h -5.9998 v -9.999695 h -2 v 9.999695 h -5.9998 V 5.999817 h 5.9998 v 5.999817 z"
     id="path79" />
  <path
     style="font-weight:bold;font-size:35.9989px;font-family:'Minecraft Logotype';-inkscape-font-specification:'Minecraft Logotype Bold';stroke-width:2.99991"
     d="m 1053.968,27.999146 h 7.9997 v -1.999939 h -7.9997 V 11.999634 h 13.9996 v 19.99939 h -13.9996 z m 5.9998,-5.999817 h 1.9999 v -5.999817 h -1.9999 z"
     id="path78" />
  <path
     style="font-weight:bold;font-size:35.9989px;font-family:'Minecraft Logotype';-inkscape-font-specification:'Minecraft Logotype Bold';stroke-width:2.99991"
     d="m 1043.9683,17.999451 h 7.9997 v 3.999878 h -7.9997 v 3.999878 h -5.9998 V 11.999634 h 13.9995 v 3.999878 h -7.9997 z"
     id="path77" />
  <path
     style="font-weight:bold;font-size:35.9989px;font-family:'Minecraft Logotype';-inkscape-font-specification:'Minecraft Logotype Bold';stroke-width:2.99991"
     d="m 1027.9688,19.99939 v 1.999939 h 7.9997 v 3.999878 H 1021.969 V 11.999634 h 13.9995 v 7.999756 z m 0,-1.999939 h 1.9999 v -1.999939 h -1.9999 z"
     id="path76" />
  <path
     style="font-weight:bold;font-size:35.9989px;font-family:'Minecraft Logotype';-inkscape-font-specification:'Minecraft Logotype Bold';stroke-width:2.99991"
     d="M 1005.9694,25.999207 V 11.999634 h 7.9997 V 5.999817 h 5.9999 v 19.99939 z m 5.9998,-3.999878 h 1.9999 v -5.999817 h -1.9999 z"
     id="path75" />
  <path
     style="font-weight:bold;font-size:35.9989px;font-family:'Minecraft Logotype';-inkscape-font-specification:'Minecraft Logotype Bold';stroke-width:2.99991"
     d="m 995.96973,21.999329 h 7.99977 v 3.999878 H 989.96991 V 11.999634 h 13.99959 v 3.999878 h -7.99977 z"
     id="path74" />
  <path
     style="font-weight:bold;font-size:35.9989px;font-family:'Minecraft Logotype';-inkscape-font-specification:'Minecraft Logotype Bold';stroke-width:2.99991"
     d="M 973.9704,25.999207 V 5.999817 h 5.99981 v 5.999817 h 7.99976 v 13.999573 z m 5.99981,-3.999878 h 1.99994 v -5.999817 h -1.99994 z"
     id="path73" />
  <path
     style="font-weight:bold;font-size:35.9989px;font-family:'Minecraft Logotype';-inkscape-font-specification:'Minecraft Logotype Bold';stroke-width:2.99991"
     d="m 971.97046,25.999207 h -3.99988 v -1.999939 h -1.99994 v 1.999939 h -7.99975 V 11.999634 h 13.99957 z m -7.99976,-3.999878 h 1.99994 v -5.999817 h -1.99994 z"
     id="path72" />
  <path
     style="font-weight:bold;font-size:35.9989px;font-family:'Minecraft Logotype';-inkscape-font-specification:'Minecraft Logotype Bold';stroke-width:2.99991"
     d="M 951.97113,5.999817 V 3.999878 h -1.99994 V 1.0595714e-7 h 3.99988 V 1.999939 h 1.99994 v 3.999878 z"
     id="path71" />
  <path
     style="font-weight:bold;font-size:35.9989px;font-family:'Minecraft Logotype';-inkscape-font-specification:'Minecraft Logotype Bold';stroke-width:2.99991"
     d="m 927.97186,25.999207 h 19.99939 v 3.999878 h -19.99939 z"
     id="path70" />
  <path
     style="font-weight:bold;font-size:35.9989px;font-family:'Minecraft Logotype';-inkscape-font-specification:'Minecraft Logotype Bold';stroke-width:2.99991"
     d="m 923.97192,7.9997559 h 1.99994 v 3.9998781 h -3.99988 V 9.9996949 h -1.99993 v 1.9999391 h -3.99988 V 7.9997559 h 1.99994 V 5.999817 h 5.99981 z"
     id="path69" />
  <path
     style="font-weight:bold;font-size:35.9989px;font-family:'Minecraft Logotype';-inkscape-font-specification:'Minecraft Logotype Bold';stroke-width:2.99991"
     d="M 903.97253,9.9996949 V 5.999817 h 9.9997 v 19.99939 h -9.9997 v -3.999878 h 3.99988 V 9.9996949 Z"
     id="path68" />
  <path
     style="font-weight:bold;font-size:35.9989px;font-family:'Minecraft Logotype';-inkscape-font-specification:'Minecraft Logotype Bold';stroke-width:2.99991"
     d="M 883.97314,11.999634 V 5.999817 h 5.99982 v 3.9998779 h 3.99988 v 5.9998171 h 3.99988 v 3.999878 h 3.99987 v 5.999817 h -5.99981 v -3.999878 h -3.99988 v -5.999817 h -3.99988 v -3.999878 z"
     id="path67" />
  <path
     style="font-weight:bold;font-size:35.9989px;font-family:'Minecraft Logotype';-inkscape-font-specification:'Minecraft Logotype Bold';stroke-width:2.99991"
     d="m 881.97321,5.999817 v 3.9998779 h -3.99988 V 21.999329 h 3.99988 v 3.999878 h -9.9997 V 5.999817 Z"
     id="path66" />
  <path
     style="font-weight:bold;font-size:35.9989px;font-family:'Minecraft Logotype';-inkscape-font-specification:'Minecraft Logotype Bold';stroke-width:2.99991"
     d="m 859.97388,13.999573 h 3.99987 V 9.9996949 H 855.974 V 5.999817 h 13.99957 v 9.999695 h -3.99988 v 1.999939 h -3.99987 v 3.999878 h 7.99975 v 3.999878 H 855.974 v -9.999695 h 3.99988 z"
     id="path65" />
  <path
     style="font-weight:bold;font-size:35.9989px;font-family:'Minecraft Logotype';-inkscape-font-specification:'Minecraft Logotype Bold';stroke-width:2.99991"
     d="m 845.9743,13.999573 h 1.99994 V 5.999817 h 5.99982 v 9.999695 h -3.99988 v 9.999695 h -5.99982 v -9.999695 h -3.99987 V 5.999817 h 5.99981 z"
     id="path64" />
  <path
     style="font-weight:bold;font-size:35.9989px;font-family:'Minecraft Logotype';-inkscape-font-specification:'Minecraft Logotype Bold';stroke-width:2.99991"
     d="m 823.97491,15.999512 h 3.99988 v -1.999939 h -3.99988 V 5.999817 h 5.99982 v 5.999817 h 1.99994 V 5.999817 h 5.99982 v 7.999756 h -3.99988 v 1.999939 h 3.99988 v 9.999695 h -5.99982 V 19.99939 h -1.99994 v 5.999817 h -5.99982 z"
     id="path63" />
  <path
     style="font-weight:bold;font-size:35.9989px;font-family:'Minecraft Logotype';-inkscape-font-specification:'Minecraft Logotype Bold';stroke-width:2.99991"
     d="m 815.97522,5.999817 h 5.99982 v 15.999512 h -1.99994 v 3.999878 h -5.99982 V 19.99939 h -3.99988 v 5.999817 h -5.99981 v -3.999878 h -1.99994 V 5.999817 h 5.99981 v 9.999695 h 1.99994 v -3.999878 h 3.99988 v 3.999878 h 1.99994 z"
     id="path62" />
  <path
     style="font-weight:bold;font-size:35.9989px;font-family:'Minecraft Logotype';-inkscape-font-specification:'Minecraft Logotype Bold';stroke-width:2.99991"
     d="m 795.97577,21.999329 v 3.999878 h -5.99982 v -3.999878 h -1.99994 v -3.999878 h -1.99994 V 5.999817 h 5.99982 v 9.999695 h 1.99994 V 5.999817 h 5.99982 v 11.999634 h -1.99994 v 3.999878 z"
     id="path61" />
  <path
     style="font-weight:bold;font-size:35.9989px;font-family:'Minecraft Logotype';-inkscape-font-specification:'Minecraft Logotype Bold';stroke-width:2.99991"
     d="m 775.97638,21.999329 h 1.99994 V 5.999817 h 5.99981 v 19.99939 H 769.97656 V 5.999817 h 5.99982 z"
     id="path60" />
  <path
     style="font-weight:bold;font-size:35.9989px;font-family:'Minecraft Logotype';-inkscape-font-specification:'Minecraft Logotype Bold';stroke-width:2.99991"
     d="m 753.97705,5.999817 h 13.99957 v 3.9998779 h -3.99987 V 25.999207 h -5.99982 V 9.9996949 h -3.99988 z"
     id="path59" />
  <path
     style="font-weight:bold;font-size:35.9989px;font-family:'Minecraft Logotype';-inkscape-font-specification:'Minecraft Logotype Bold';stroke-width:2.99991"
     d="m 743.97736,13.999573 h 7.99975 v 11.999634 h -13.99957 v -3.999878 h 7.99975 v -3.999878 h -7.99975 V 5.999817 h 13.99957 v 3.9998779 h -7.99975 z"
     id="path58" />
  <path
     style="font-weight:bold;font-size:35.9989px;font-family:'Minecraft Logotype';-inkscape-font-specification:'Minecraft Logotype Bold';stroke-width:2.99991"
     d="m 733.97766,15.999512 h 1.99994 v 9.999695 h -5.99982 v -7.999756 h -1.99994 v 7.999756 h -5.99981 V 5.999817 h 13.99957 v 7.999756 h -1.99994 z m -3.99988,-1.999939 V 9.9996949 h -1.99994 v 3.9998781 z"
     id="path57" />
  <path
     style="font-weight:bold;font-size:35.9989px;font-family:'Minecraft Logotype';-inkscape-font-specification:'Minecraft Logotype Bold';stroke-width:2.99991"
     d="m 717.97815,21.999329 h 1.99994 v 3.999878 H 703.97858 V 5.999817 h 13.99957 z m -7.99976,0 h 1.99994 V 9.9996949 h -1.99994 z"
     id="path56" />
  <path
     style="font-weight:bold;font-size:35.9989px;font-family:'Minecraft Logotype';-inkscape-font-specification:'Minecraft Logotype Bold';stroke-width:2.99991"
     d="m 693.97888,17.999451 v 7.999756 h -5.99982 V 5.999817 h 13.99958 v 11.999634 z m 0,-3.999878 h 1.99994 V 9.9996949 h -1.99994 z"
     id="path55" />
  <path
     style="font-weight:bold;font-size:35.9989px;font-family:'Minecraft Logotype';-inkscape-font-specification:'Minecraft Logotype Bold';stroke-width:2.99991"
     d="M 671.97955,25.999207 V 5.999817 h 13.99958 v 19.99939 z m 5.99982,-3.999878 h 1.99994 V 9.9996949 h -1.99994 z"
     id="path54" />
  <path
     style="font-weight:bold;font-size:35.9989px;font-family:'Minecraft Logotype';-inkscape-font-specification:'Minecraft Logotype Bold';stroke-width:2.99991"
     d="m 663.9798,5.999817 h 5.99981 v 19.99939 H 663.9798 V 19.99939 h -1.99994 v -3.999878 h -1.99994 v 9.999695 H 653.9801 V 5.999817 h 5.99982 v 3.9998779 h 1.99994 v 3.9998781 h 1.99994 z"
     id="path53" />
  <path
     style="font-weight:bold;font-size:35.9989px;font-family:'Minecraft Logotype';-inkscape-font-specification:'Minecraft Logotype Bold';stroke-width:2.99991"
     d="m 645.98035,5.999817 h 5.99981 v 19.99939 h -5.99981 v -7.999756 h -1.99994 v 3.999878 h -3.99988 v -3.999878 h -1.99994 v 7.999756 h -5.99982 V 5.999817 h 5.99982 v 3.9998779 h 1.99994 v 3.9998781 h 3.99988 V 9.9996949 h 1.99994 z"
     id="path52" />
  <path
     style="font-weight:bold;font-size:35.9989px;font-family:'Minecraft Logotype';-inkscape-font-specification:'Minecraft Logotype Bold';stroke-width:2.99991"
     d="m 623.98102,21.999329 h 5.99981 v 3.999878 H 617.9812 V 5.999817 h 5.99982 z"
     id="path51" />
  <path
     style="font-weight:bold;font-size:35.9989px;font-family:'Minecraft Logotype';-inkscape-font-specification:'Minecraft Logotype Bold';stroke-width:2.99991"
     d="m 611.98138,15.999512 h 3.99988 v 9.999695 h -5.99982 V 19.99939 h -1.99993 v 5.999817 h -5.99982 V 5.999817 h 5.99982 v 5.999817 h 1.99993 V 5.999817 h 5.99982 v 7.999756 h -3.99988 z"
     id="path50" />
  <path
     style="font-weight:bold;font-size:35.9989px;font-family:'Minecraft Logotype';-inkscape-font-specification:'Minecraft Logotype Bold';stroke-width:2.99991"
     d="m 591.98199,21.999329 h 1.99994 V 5.999817 h 5.99982 v 19.99939 h -13.99957 v -7.999756 h 5.99981 z"
     id="path49" />
  <path
     style="font-weight:bold;font-size:35.9989px;font-family:'Minecraft Logotype';-inkscape-font-specification:'Minecraft Logotype Bold';stroke-width:2.99991"
     d="m 577.98242,5.999817 h 5.99982 v 19.99939 h -5.99982 z"
     id="path48" />
  <path
     style="font-weight:bold;font-size:35.9989px;font-family:'Minecraft Logotype';-inkscape-font-specification:'Minecraft Logotype Bold';stroke-width:2.99991"
     d="m 567.98273,13.999573 h 1.99994 V 5.999817 h 5.99981 v 19.99939 h -5.99981 v -7.999756 h -1.99994 v 7.999756 h -5.99982 V 5.999817 h 5.99982 z"
     id="path47" />
  <path
     style="font-weight:bold;font-size:35.9989px;font-family:'Minecraft Logotype';-inkscape-font-specification:'Minecraft Logotype Bold';stroke-width:2.99991"
     d="m 551.98321,21.999329 h 1.99994 v -7.999756 h 5.99982 V 25.999207 H 545.9834 V 5.999817 h 13.99957 v 3.9998779 h -7.99976 z"
     id="path46" />
  <path
     style="font-weight:bold;font-size:35.9989px;font-family:'Minecraft Logotype';-inkscape-font-specification:'Minecraft Logotype Bold';stroke-width:2.99991"
     d="m 543.98346,5.999817 v 3.9998779 h -7.99976 v 3.9998781 h 7.99976 v 3.999878 h -7.99976 v 7.999756 h -5.99981 V 5.999817 Z"
     id="path45" />
  <path
     style="font-weight:bold;font-size:35.9989px;font-family:'Minecraft Logotype';-inkscape-font-specification:'Minecraft Logotype Bold';stroke-width:2.99991"
     d="m 527.98395,5.999817 v 3.9998779 h -7.99976 v 3.9998781 h 7.99976 v 3.999878 h -7.99976 v 3.999878 h 7.99976 v 3.999878 H 513.98437 V 5.999817 Z"
     id="path44" />
  <path
     style="font-weight:bold;font-size:35.9989px;font-family:'Minecraft Logotype';-inkscape-font-specification:'Minecraft Logotype Bold';stroke-width:2.99991"
     d="m 509.98447,23.999268 v 1.999939 H 497.98483 V 5.999817 h 11.99964 v 1.9999389 h 1.99993 V 23.999268 Z m -5.99982,-1.999939 h 1.99994 V 9.9996949 h -1.99994 z"
     id="path43" />
  <path
     style="font-weight:bold;font-size:35.9989px;font-family:'Minecraft Logotype';-inkscape-font-specification:'Minecraft Logotype Bold';stroke-width:2.99991"
     d="m 495.98486,5.999817 v 3.9998779 h -7.99975 V 21.999329 h 7.99975 v 3.999878 H 481.98529 V 5.999817 Z"
     id="path42" />
  <path
     style="font-weight:bold;font-size:35.9989px;font-family:'Minecraft Logotype';-inkscape-font-specification:'Minecraft Logotype Bold';stroke-width:2.99991"
     d="M 465.98578,25.999207 V 5.999817 h 13.99957 v 7.999756 h -1.99994 v 1.999939 h 1.99994 v 9.999695 z m 5.99982,-3.999878 h 1.99993 v -3.999878 h -1.99993 z m 1.99993,-7.999756 V 9.9996949 h -1.99993 v 3.9998781 z"
     id="path41" />
  <path
     style="font-weight:bold;font-size:35.9989px;font-family:'Minecraft Logotype';-inkscape-font-specification:'Minecraft Logotype Bold';stroke-width:2.99991"
     d="m 457.98602,17.999451 h -1.99994 v 7.999756 h -5.99981 V 5.999817 h 13.99957 v 19.99939 h -5.99982 z m -1.99994,-3.999878 h 1.99994 V 9.9996949 h -1.99994 z"
     id="path40" />
  <path
     style="font-weight:bold;font-size:35.9989px;font-family:'Minecraft Logotype';-inkscape-font-specification:'Minecraft Logotype Bold';stroke-width:2.99991"
     d="m 433.98675,21.999329 h 13.99958 v 3.999878 H 429.98688 V 5.999817 h 17.99945 V 19.99939 h -11.99964 v -7.999756 h 5.99982 v 3.999878 h 1.99994 V 9.9996949 h -9.9997 z"
     id="path39" />
  <path
     style="font-weight:bold;font-size:35.9989px;font-family:'Minecraft Logotype';-inkscape-font-specification:'Minecraft Logotype Bold';stroke-width:2.99991"
     d="m 413.98737,5.999817 h 13.99957 v 9.999695 h -3.99988 v 1.999939 h -5.99982 v -3.999878 h 3.99988 V 9.9996949 h -1.99994 v 1.9999391 h -5.99981 z"
     id="path38" />
  <path
     style="font-weight:bold;font-size:35.9989px;font-family:'Minecraft Logotype';-inkscape-font-specification:'Minecraft Logotype Bold';stroke-width:2.99991"
     d="m 417.98724,19.99939 h 5.99982 v 5.999817 h -5.99982 z"
     id="path37" />
  <path
     style="font-weight:bold;font-size:35.9989px;font-family:'Minecraft Logotype';-inkscape-font-specification:'Minecraft Logotype Bold';stroke-width:2.99991"
     d="m 401.98773,15.999512 v -1.999939 h -3.99988 V 9.9996949 h 5.99982 v 1.9999391 h 3.99988 v 1.999939 h 3.99988 v 5.999817 h -3.99988 v 1.999939 h -3.99988 v 1.999939 h -5.99982 V 19.99939 h 3.99988 v -1.999939 h 3.99988 v -1.999939 z"
     id="path36" />
  <path
     style="font-weight:bold;font-size:35.9989px;font-family:'Minecraft Logotype';-inkscape-font-specification:'Minecraft Logotype Bold';stroke-width:2.99991"
     d="m 383.98825,17.999451 h 11.99963 v 3.999878 h -11.99963 z"
     id="path35" />
  <path
     style="font-weight:bold;font-size:35.9989px;font-family:'Minecraft Logotype';-inkscape-font-specification:'Minecraft Logotype Bold';stroke-width:2.99991"
     d="m 383.98825,9.9996949 h 11.99963 v 3.9998781 h -11.99963 z"
     id="path34" />
  <path
     style="font-weight:bold;font-size:35.9989px;font-family:'Minecraft Logotype';-inkscape-font-specification:'Minecraft Logotype Bold';stroke-width:2.99991"
     d="m 371.98862,11.999634 h 3.99987 V 9.9996949 h 5.99982 v 3.9998781 h -3.99988 v 1.999939 h -3.99987 v 1.999939 h 3.99987 v 1.999939 h 3.99988 v 3.999878 h -5.99982 v -1.999939 h -3.99987 V 19.99939 h -3.99988 v -5.999817 h 3.99988 z"
     id="path33" />
  <path
     style="font-weight:bold;font-size:35.9989px;font-family:'Minecraft Logotype';-inkscape-font-specification:'Minecraft Logotype Bold';stroke-width:2.99991"
     d="m 359.98901,9.9996949 h 5.99982 v 5.9998171 h -5.99982 z"
     id="path32" />
  <path
     style="font-weight:bold;font-size:35.9989px;font-family:'Minecraft Logotype';-inkscape-font-specification:'Minecraft Logotype Bold';stroke-width:2.99991"
     d="m 365.98883,29.999085 h -3.99988 v -3.999878 h -1.99994 V 19.99939 h 5.99982 z"
     id="path31" />
  <path
     style="font-weight:bold;font-size:35.9989px;font-family:'Minecraft Logotype';-inkscape-font-specification:'Minecraft Logotype Bold';stroke-width:2.99991"
     d="m 351.98929,9.9996949 h 5.99981 v 5.9998171 h -5.99981 z"
     id="path30" />
  <path
     style="font-weight:bold;font-size:35.9989px;font-family:'Minecraft Logotype';-inkscape-font-specification:'Minecraft Logotype Bold';stroke-width:2.99991"
     d="m 351.98929,19.99939 h 5.99981 v 5.999817 h -5.99981 z"
     id="path29" />
  <path
     style="font-weight:bold;font-size:35.9989px;font-family:'Minecraft Logotype';-inkscape-font-specification:'Minecraft Logotype Bold';stroke-width:2.99991"
     d="m 343.98953,5.999817 h 5.99982 v 5.999817 h -3.99988 v 3.999878 h -3.99988 v 5.999817 h -3.99987 v 3.999878 H 331.9899 V 19.99939 h 3.99988 v -3.999878 h 3.99987 V 9.9996949 h 3.99988 z"
     id="path28" />
  <path
     style="font-weight:bold;font-size:35.9989px;font-family:'Minecraft Logotype';-inkscape-font-specification:'Minecraft Logotype Bold';stroke-width:2.99991"
     d="m 323.99017,19.99939 h 5.99982 v 5.999817 h -5.99982 z"
     id="path27" />
  <path
     style="font-weight:bold;font-size:35.9989px;font-family:'Minecraft Logotype';-inkscape-font-specification:'Minecraft Logotype Bold';stroke-width:2.99991"
     d="m 311.99054,13.999573 h 9.99969 v 3.999878 h -9.99969 z"
     id="path26" />
  <path
     style="font-weight:bold;font-size:35.9989px;font-family:'Minecraft Logotype';-inkscape-font-specification:'Minecraft Logotype Bold';stroke-width:2.99991"
     d="m 309.9906,29.999085 h -3.99988 v -3.999878 h -1.99994 V 19.99939 h 5.99982 z"
     id="path25" />
  <path
     style="font-weight:bold;font-size:35.9989px;font-family:'Minecraft Logotype';-inkscape-font-specification:'Minecraft Logotype Bold';stroke-width:2.99991"
     d="m 289.99121,13.999573 h 3.99988 V 9.9996949 h 3.99988 v 3.9998781 h 3.99987 v 3.999878 h -3.99987 v 3.999878 h -3.99988 v -3.999878 h -3.99988 z"
     id="path24" />
  <path
     style="font-weight:bold;font-size:35.9989px;font-family:'Minecraft Logotype';-inkscape-font-specification:'Minecraft Logotype Bold';stroke-width:2.99991"
     d="m 279.99152,7.9997559 h 3.99987 V 5.999817 h 3.99988 v 3.9998779 h -1.99994 v 3.9998781 h 1.99994 v 3.999878 h -3.99988 v -1.999939 h -3.99987 v 1.999939 h -3.99988 v -3.999878 h 1.99994 V 9.9996949 h -1.99994 V 5.999817 h 3.99988 z"
     id="path23" />
  <path
     style="font-weight:bold;font-size:35.9989px;font-family:'Minecraft Logotype';-inkscape-font-specification:'Minecraft Logotype Bold';stroke-width:2.99991"
     d="M 259.9921,9.9996949 V 5.999817 h 9.99969 v 3.9998779 h 3.99988 V 21.999329 h -3.99988 v 3.999878 h -9.99969 v -3.999878 h 3.99987 v -3.999878 h 3.99988 v -3.999878 h -3.99988 V 9.9996949 Z"
     id="path22" />
  <path
     style="font-weight:bold;font-size:35.9989px;font-family:'Minecraft Logotype';-inkscape-font-specification:'Minecraft Logotype Bold';stroke-width:2.99991"
     d="m 247.99246,5.999817 h 9.9997 v 3.9998779 h -3.99988 v 3.9998781 h -3.99988 v 3.999878 h 3.99988 v 3.999878 h 3.99988 v 3.999878 h -9.9997 v -3.999878 h -3.99988 V 9.9996949 h 3.99988 z"
     id="path21" />
  <path
     style="font-weight:bold;font-size:35.9989px;font-family:'Minecraft Logotype';-inkscape-font-specification:'Minecraft Logotype Bold';stroke-width:2.99991"
     d="m 235.99286,5.999817 h 5.99982 v 9.999695 h -5.99982 z"
     id="path20" />
  <path
     style="font-weight:bold;font-size:35.9989px;font-family:'Minecraft Logotype';-inkscape-font-specification:'Minecraft Logotype Bold';stroke-width:2.99991"
     d="m 221.99329,17.999451 v -1.999939 h 1.99993 v -1.999939 h -1.99993 v -1.999939 h -1.99994 V 7.9997559 h 1.99994 V 5.999817 h 9.99969 v 1.9999389 h 1.99994 v 3.9998781 h -1.99994 v 1.999939 h -1.99994 v 1.999939 h 3.99988 v 3.999878 h -1.99994 v 1.999939 h 1.99994 v 3.999878 h -3.99988 v -1.999939 h -1.99994 v 1.999939 h -5.99981 v -1.999939 h -1.99994 v -5.999817 z m 3.99987,0 v 3.999878 h 1.99994 v -3.999878 z m 0,-3.999878 h 1.99994 V 9.9996949 h -1.99994 z"
     id="path19" />
  <path
     style="font-weight:bold;font-size:35.9989px;font-family:'Minecraft Logotype';-inkscape-font-specification:'Minecraft Logotype Bold';stroke-width:2.99991"
     d="m 199.99396,5.999817 h 5.99981 v 5.999817 h -5.99981 z"
     id="path18" />
  <path
     style="font-weight:bold;font-size:35.9989px;font-family:'Minecraft Logotype';-inkscape-font-specification:'Minecraft Logotype Bold';stroke-width:2.99991"
     d="m 211.99359,5.999817 h 5.99982 v 5.999817 h -3.99988 v 3.999878 h -3.99988 v 5.999817 h -3.99988 v 3.999878 h -5.99981 V 19.99939 h 3.99987 v -3.999878 h 3.99988 V 9.9996949 h 3.99988 z"
     id="path17" />
  <path
     style="font-weight:bold;font-size:35.9989px;font-family:'Minecraft Logotype';-inkscape-font-specification:'Minecraft Logotype Bold';stroke-width:2.99991"
     d="m 211.99359,19.99939 h 5.99982 v 5.999817 h -5.99982 z"
     id="path16" />
  <path
     style="font-weight:bold;font-size:35.9989px;font-family:'Minecraft Logotype';-inkscape-font-specification:'Minecraft Logotype Bold';stroke-width:2.99991"
     d="m 187.99432,1.999939 h 5.99982 v 3.999878 h 3.99988 v 3.9998779 h -7.99976 v 3.9998781 h 7.99976 v 11.999634 h -3.99988 v 3.999878 h -5.99982 v -3.999878 h -3.99987 v -3.999878 h 7.99975 v -3.999878 h -7.99975 V 5.999817 h 3.99987 z"
     id="path15" />
  <path
     style="font-weight:bold;font-size:35.9989px;font-family:'Minecraft Logotype';-inkscape-font-specification:'Minecraft Logotype Bold';stroke-width:2.99991"
     d="m 163.99506,17.999451 h 1.99993 v -3.999878 h -1.99993 V 9.9996949 h 1.99993 V 5.999817 h 5.99982 v 3.9998779 h 1.99994 V 5.999817 h 5.99982 v 3.9998779 h 1.99994 v 3.9998781 h -1.99994 v 3.999878 h 1.99994 v 3.999878 h -1.99994 v 3.999878 h -5.99982 v -3.999878 h -1.99994 v 3.999878 h -5.99982 v -3.999878 h -1.99993 z m 7.99975,0 h 1.99994 v -3.999878 h -1.99994 z"
     id="path14" />
  <path
     style="font-weight:bold;font-size:35.9989px;font-family:'Minecraft Logotype';-inkscape-font-specification:'Minecraft Logotype Bold';stroke-width:2.99991"
     d="m 155.9953,5.999817 h 5.99982 v 9.999695 h -5.99982 z"
     id="path13" />
  <path
     style="font-weight:bold;font-size:35.9989px;font-family:'Minecraft Logotype';-inkscape-font-specification:'Minecraft Logotype Bold';stroke-width:2.99991"
     d="m 147.99554,5.999817 h 5.99982 v 9.999695 h -5.99982 z"
     id="path12" />
  <path
     style="font-weight:bold;font-size:35.9989px;font-family:'Minecraft Logotype';-inkscape-font-specification:'Minecraft Logotype Bold';stroke-width:2.99991"
     d="m 139.99582,5.999817 h 5.99982 v 11.999634 h -5.99982 z"
     id="path11" />
  <path
     style="font-weight:bold;font-size:35.9989px;font-family:'Minecraft Logotype';-inkscape-font-specification:'Minecraft Logotype Bold';stroke-width:2.99991"
     d="m 139.99582,19.99939 h 5.99982 v 5.999817 h -5.99982 z"
     id="path10" />
  <path
     style="font-weight:bold;font-size:35.9989px;font-family:'Minecraft Logotype';-inkscape-font-specification:'Minecraft Logotype Bold';stroke-width:2.99991"
     d="m 131.99605,17.999451 h -7.99976 V 5.999817 h 13.99957 v 19.99939 h -13.99957 v -3.999878 h 7.99976 z m -1.99994,-3.999878 h 1.99994 V 9.9996949 h -1.99994 z"
     id="path9" />
  <path
     style="font-weight:bold;font-size:35.9989px;font-family:'Minecraft Logotype';-inkscape-font-specification:'Minecraft Logotype Bold';stroke-width:2.99991"
     d="m 107.99677,15.999512 h 1.99994 v -1.999939 h -1.99994 V 5.999817 h 13.99958 v 7.999756 h -1.99994 v 1.999939 h 1.99994 v 9.999695 h -13.99958 z m 5.99982,1.999939 v 3.999878 h 1.99994 v -3.999878 z m 0,-7.9997561 v 3.9998781 h 1.99994 V 9.9996949 Z"
     id="path8" />
  <path
     style="font-weight:bold;font-size:35.9989px;font-family:'Minecraft Logotype';-inkscape-font-specification:'Minecraft Logotype Bold';stroke-width:2.99991"
     d="m 93.997193,21.999329 h 1.999939 v -3.999878 h 1.999939 V 13.999573 H 99.99701 V 9.9996949 H 91.997254 V 5.999817 h 13.999576 v 7.999756 h -1.99994 v 3.999878 h -1.99994 v 3.999878 h -1.99994 v 3.999878 h -5.999817 z"
     id="path7" />
  <path
     style="font-weight:bold;font-size:35.9989px;font-family:'Minecraft Logotype';-inkscape-font-specification:'Minecraft Logotype Bold';stroke-width:2.99991"
     d="m 81.997551,13.999573 h 7.999756 V 25.999207 H 75.997735 V 5.999817 h 13.999572 v 3.9998779 h -7.999756 z m 1.999939,3.999878 h -1.999939 v 3.999878 h 1.999939 z"
     id="path6" />
  <path
     style="font-weight:bold;font-size:35.9989px;font-family:'Minecraft Logotype';-inkscape-font-specification:'Minecraft Logotype Bold';stroke-width:2.99991"
     d="m 65.998032,13.999573 h 7.999756 V 25.999207 H 59.998215 v -3.999878 h 7.999756 V 17.999451 H 59.998215 V 5.999817 h 13.999573 v 3.9998779 h -7.999756 z"
     id="path5" />
  <path
     style="font-weight:bold;font-size:35.9989px;font-family:'Minecraft Logotype';-inkscape-font-specification:'Minecraft Logotype Bold';stroke-width:2.99991"
     d="m 49.998513,13.999573 h 1.999939 V 5.999817 h 5.999817 v 19.99939 H 51.998452 V 17.999451 H 43.998696 V 5.999817 h 5.999817 z"
     id="path4" />
  <path
     style="font-weight:bold;font-size:35.9989px;font-family:'Minecraft Logotype';-inkscape-font-specification:'Minecraft Logotype Bold';stroke-width:2.99991"
     d="m 27.999177,21.999329 h 7.999755 v -3.999878 h -7.999755 v -3.999878 h 7.999755 V 9.9996949 H 27.999177 V 5.999817 h 13.999572 v 7.999756 H 39.99881 v 1.999939 h 1.999939 v 9.999695 H 27.999177 Z"
     id="path3" />
  <path
     style="font-weight:bold;font-size:35.9989px;font-family:'Minecraft Logotype';-inkscape-font-specification:'Minecraft Logotype Bold';stroke-width:2.99991"
     d="M 19.999413,13.999573 V 9.9996949 H 11.999657 V 5.999817 H 25.99923 v 11.999634 h -7.999756 v 3.999878 h 7.999756 v 3.999878 H 11.999657 V 13.999573 Z"
     id="path2" />
  <path
     style="font-weight:bold;font-size:35.9989px;font-family:'Minecraft Logotype';-inkscape-font-specification:'Minecraft Logotype Bold';stroke-width:2.99991"
     d="M 0,7.9997559 H 3.9998779 V 5.999817 h 5.9998169 v 19.99939 H 3.9998779 V 11.999634 H 0 Z"
     id="text2" />
</svg>
